<svg version="1.1" id="Layer_1" xmlns="http://www.w3.org/2000/svg" xmlns:xlink="http://www.w3.org/1999/xlink" x="0px" y="0px"
	 width="100%" viewBox="0 0 1270 262" enable-background="new 0 0 1270 262" xml:space="preserve">
<path fill="#FEFEFE" opacity="1.000000" stroke="none" 
	d="
M868.000000,263.000000 
	C578.666687,263.000000 289.833344,263.000000 1.000000,263.000000 
	C1.000000,175.666672 1.000000,88.333336 1.000000,1.000000 
	C424.333344,1.000000 847.666687,1.000000 1271.000000,1.000000 
	C1271.000000,88.333336 1271.000000,175.666672 1271.000000,263.000000 
	C1136.833374,263.000000 1002.666687,263.000000 868.000000,263.000000 
M733.512268,219.167725 
	C790.252747,219.167725 846.993225,219.167725 903.775879,219.167725 
	C903.775879,206.177750 903.775879,193.760666 903.775879,180.843048 
	C859.343018,180.843048 815.131836,180.843048 770.995605,180.843048 
	C770.995605,169.049042 770.995605,157.758423 770.995605,145.969879 
	C812.550171,145.969879 853.945740,145.969879 895.190308,145.969879 
	C895.190308,133.065750 895.190308,120.662903 895.190308,107.889587 
	C853.636475,107.889587 812.384460,107.889587 771.150391,107.889587 
	C771.150391,97.952782 771.150391,88.396935 771.150391,78.461121 
	C814.881531,78.461121 858.297180,78.461121 901.837036,78.461121 
	C901.837036,65.531136 901.837036,52.990978 901.837036,40.575794 
	C841.472717,40.575794 781.439758,40.575794 721.405151,40.575794 
	C721.405151,100.242432 721.405151,159.500244 721.405151,219.167725 
	C725.264709,219.167725 728.891907,219.167725 733.512268,219.167725 
M1189.500000,181.000885 
	C1164.405640,181.000885 1139.311401,181.000885 1114.287842,181.000885 
	C1114.287842,169.021118 1114.287842,157.615540 1114.287842,145.711655 
	C1155.952881,145.711655 1197.331177,145.711655 1238.589355,145.711655 
	C1238.589355,132.934341 1238.589355,120.662552 1238.589355,107.901115 
	C1196.964966,107.901115 1155.579834,107.901115 1114.344238,107.901115 
	C1114.344238,97.850143 1114.344238,88.296707 1114.344238,78.361450 
	C1158.113892,78.361450 1201.539917,78.361450 1245.037598,78.361450 
	C1245.037598,65.456467 1245.037598,52.950317 1245.037598,40.401596 
	C1184.645874,40.401596 1124.708618,40.401596 1064.813477,40.401596 
	C1064.813477,100.038010 1064.813477,159.441025 1064.813477,218.847626 
	C1125.857666,218.847626 1186.596191,218.847626 1247.210815,218.847626 
	C1247.210815,206.113831 1247.210815,193.700180 1247.210815,181.000885 
	C1228.120972,181.000885 1209.310425,181.000885 1189.500000,181.000885 
M120.218826,72.495049 
	C138.950226,72.942169 157.298508,75.896484 175.174225,81.443192 
	C183.182037,83.927963 190.965073,87.137115 199.003815,90.073700 
	C199.003815,76.320419 199.003815,62.852802 199.003815,49.477661 
	C198.577454,49.205196 198.330093,48.959759 198.035583,48.871288 
	C158.364792,36.954376 118.110199,31.563572 76.955063,39.284286 
	C60.967392,42.283581 45.876652,47.709805 34.819546,60.845146 
	C22.033615,76.034248 20.338911,103.252518 37.019020,118.788925 
	C48.131523,129.139465 61.588234,135.091507 75.855995,138.879517 
	C94.623566,143.862244 113.776382,147.379852 132.604416,152.154877 
	C141.693756,154.460052 150.856689,157.331314 159.188477,161.529587 
	C167.748169,165.842651 167.117477,175.289856 158.457870,179.653519 
	C153.654480,182.073975 148.372375,184.132996 143.092010,184.921448 
	C112.157684,189.540482 81.709450,187.005478 52.017612,177.099365 
	C43.343658,174.205475 34.998394,170.326416 26.249775,166.796967 
	C26.249775,180.829056 26.249775,194.751923 26.249775,208.818573 
	C56.434414,219.684784 87.639084,224.448166 119.678841,223.935883 
	C139.642502,223.616669 159.479065,222.169800 178.399139,214.994156 
	C191.289505,210.105362 202.697067,203.039764 208.773941,190.089645 
	C216.443863,173.744690 217.077484,157.405579 205.884064,142.129807 
	C198.710022,132.339310 188.478622,126.463486 177.620483,121.665001 
	C158.643082,113.278412 138.279999,109.793808 118.296913,104.898788 
	C105.466179,101.755783 92.841705,97.731003 80.222237,93.789444 
	C76.428719,92.604576 73.618584,89.889557 73.880775,85.285545 
	C74.154106,80.485725 77.619209,78.479828 81.433311,77.047890 
	C93.671310,72.453369 106.558983,72.991631 120.218826,72.495049 
M296.181213,98.821419 
	C275.301758,138.682861 254.422287,178.544312 233.424179,218.632263 
	C234.444138,218.913055 234.879852,219.137375 235.315857,219.137955 
	C251.644241,219.160065 267.973602,219.239227 284.299377,219.034576 
	C285.782043,219.015991 287.885468,217.488937 288.607727,216.095779 
	C293.393433,206.865082 297.767670,197.420578 302.582733,188.206024 
	C303.331787,186.772552 305.644958,185.301788 307.242859,185.292908 
	C338.065979,185.121689 368.890472,185.208679 399.714142,185.097504 
	C402.658600,185.086884 404.139099,186.049423 405.393158,188.668213 
	C409.697937,197.657516 414.405914,206.454651 418.660553,215.466522 
	C419.992615,218.287979 421.527832,219.290817 424.648743,219.243240 
	C436.975494,219.055313 449.306824,219.166092 461.636444,219.166107 
	C465.681396,219.166107 469.726318,219.166122 474.226196,219.166122 
	C456.222015,184.604034 438.649933,150.753128 420.964874,116.961342 
	C408.117920,92.414009 395.081085,67.966003 382.255280,43.407726 
	C380.994995,40.994545 379.637817,40.084724 376.913727,40.106884 
	C361.252808,40.234276 345.589417,40.096024 329.929718,40.282928 
	C328.382263,40.301395 326.120819,41.522575 325.426941,42.837730 
	C315.715942,61.243340 306.220154,79.762497 296.181213,98.821419 
M507.505188,219.165268 
	C565.778809,219.165268 624.052429,219.165268 682.214600,219.165268 
	C682.214600,205.789948 682.214600,193.041565 682.214600,179.864365 
	C638.699585,179.864365 595.458313,179.864365 551.713135,179.864365 
	C551.713135,133.051392 551.713135,86.671181 551.713135,40.391159 
	C535.409180,40.391159 519.613770,40.391159 503.509766,40.391159 
	C503.509766,41.926231 503.509705,43.240204 503.509705,44.554176 
	C503.509674,101.219063 503.509644,157.883942 503.510193,214.548828 
	C503.510193,215.382111 503.185303,216.483093 503.593933,216.990112 
	C504.329529,217.902740 505.506775,218.459366 507.505188,219.165268 
M945.706421,110.195900 
	C936.147583,128.876923 943.341003,151.426453 961.978088,161.203522 
	C979.547974,170.420746 1003.669556,163.366287 1012.568848,146.408081 
	C1023.481750,125.612656 1016.642639,102.975029 995.363342,92.700577 
	C977.243896,83.951767 955.608582,91.316513 945.706421,110.195900 
z"/>
<path fill="#010101" opacity="1.000000" stroke="none" 
	d="
M733.015686,219.167725 
	C728.891907,219.167725 725.264709,219.167725 721.405151,219.167725 
	C721.405151,159.500244 721.405151,100.242432 721.405151,40.575794 
	C781.439758,40.575794 841.472717,40.575794 901.837036,40.575794 
	C901.837036,52.990978 901.837036,65.531136 901.837036,78.461121 
	C858.297180,78.461121 814.881531,78.461121 771.150391,78.461121 
	C771.150391,88.396935 771.150391,97.952782 771.150391,107.889587 
	C812.384460,107.889587 853.636475,107.889587 895.190308,107.889587 
	C895.190308,120.662903 895.190308,133.065750 895.190308,145.969879 
	C853.945740,145.969879 812.550171,145.969879 770.995605,145.969879 
	C770.995605,157.758423 770.995605,169.049042 770.995605,180.843048 
	C815.131836,180.843048 859.343018,180.843048 903.775879,180.843048 
	C903.775879,193.760666 903.775879,206.177750 903.775879,219.167725 
	C846.993225,219.167725 790.252747,219.167725 733.015686,219.167725 
z"/>
<path fill="#010101" opacity="1.000000" stroke="none" 
	d="
M1190.000000,181.000885 
	C1209.310425,181.000885 1228.120972,181.000885 1247.210815,181.000885 
	C1247.210815,193.700180 1247.210815,206.113831 1247.210815,218.847626 
	C1186.596191,218.847626 1125.857666,218.847626 1064.813477,218.847626 
	C1064.813477,159.441025 1064.813477,100.038010 1064.813477,40.401596 
	C1124.708618,40.401596 1184.645874,40.401596 1245.037598,40.401596 
	C1245.037598,52.950317 1245.037598,65.456467 1245.037598,78.361450 
	C1201.539917,78.361450 1158.113892,78.361450 1114.344238,78.361450 
	C1114.344238,88.296707 1114.344238,97.850143 1114.344238,107.901115 
	C1155.579834,107.901115 1196.964966,107.901115 1238.589355,107.901115 
	C1238.589355,120.662552 1238.589355,132.934341 1238.589355,145.711655 
	C1197.331177,145.711655 1155.952881,145.711655 1114.287842,145.711655 
	C1114.287842,157.615540 1114.287842,169.021118 1114.287842,181.000885 
	C1139.311401,181.000885 1164.405640,181.000885 1190.000000,181.000885 
z"/>
<path fill="#010101" opacity="1.000000" stroke="none" 
	d="
M119.763664,72.493538 
	C106.558983,72.991631 93.671310,72.453369 81.433311,77.047890 
	C77.619209,78.479828 74.154106,80.485725 73.880775,85.285545 
	C73.618584,89.889557 76.428719,92.604576 80.222237,93.789444 
	C92.841705,97.731003 105.466179,101.755783 118.296913,104.898788 
	C138.279999,109.793808 158.643082,113.278412 177.620483,121.665001 
	C188.478622,126.463486 198.710022,132.339310 205.884064,142.129807 
	C217.077484,157.405579 216.443863,173.744690 208.773941,190.089645 
	C202.697067,203.039764 191.289505,210.105362 178.399139,214.994156 
	C159.479065,222.169800 139.642502,223.616669 119.678841,223.935883 
	C87.639084,224.448166 56.434414,219.684784 26.249775,208.818573 
	C26.249775,194.751923 26.249775,180.829056 26.249775,166.796967 
	C34.998394,170.326416 43.343658,174.205475 52.017612,177.099365 
	C81.709450,187.005478 112.157684,189.540482 143.092010,184.921448 
	C148.372375,184.132996 153.654480,182.073975 158.457870,179.653519 
	C167.117477,175.289856 167.748169,165.842651 159.188477,161.529587 
	C150.856689,157.331314 141.693756,154.460052 132.604416,152.154877 
	C113.776382,147.379852 94.623566,143.862244 75.855995,138.879517 
	C61.588234,135.091507 48.131523,129.139465 37.019020,118.788925 
	C20.338911,103.252518 22.033615,76.034248 34.819546,60.845146 
	C45.876652,47.709805 60.967392,42.283581 76.955063,39.284286 
	C118.110199,31.563572 158.364792,36.954376 198.035583,48.871288 
	C198.330093,48.959759 198.577454,49.205196 199.003815,49.477661 
	C199.003815,62.852802 199.003815,76.320419 199.003815,90.073700 
	C190.965073,87.137115 183.182037,83.927963 175.174225,81.443192 
	C157.298508,75.896484 138.950226,72.942169 119.763664,72.493538 
z"/>
<path fill="#010101" opacity="1.000000" stroke="none" 
	d="
M296.426575,98.537712 
	C306.220154,79.762497 315.715942,61.243340 325.426941,42.837730 
	C326.120819,41.522575 328.382263,40.301395 329.929718,40.282928 
	C345.589417,40.096024 361.252808,40.234276 376.913727,40.106884 
	C379.637817,40.084724 380.994995,40.994545 382.255280,43.407726 
	C395.081085,67.966003 408.117920,92.414009 420.964874,116.961342 
	C438.649933,150.753128 456.222015,184.604034 474.226196,219.166122 
	C469.726318,219.166122 465.681396,219.166107 461.636444,219.166107 
	C449.306824,219.166092 436.975494,219.055313 424.648743,219.243240 
	C421.527832,219.290817 419.992615,218.287979 418.660553,215.466522 
	C414.405914,206.454651 409.697937,197.657516 405.393158,188.668213 
	C404.139099,186.049423 402.658600,185.086884 399.714142,185.097504 
	C368.890472,185.208679 338.065979,185.121689 307.242859,185.292908 
	C305.644958,185.301788 303.331787,186.772552 302.582733,188.206024 
	C297.767670,197.420578 293.393433,206.865082 288.607727,216.095779 
	C287.885468,217.488937 285.782043,219.015991 284.299377,219.034576 
	C267.973602,219.239227 251.644241,219.160065 235.315857,219.137955 
	C234.879852,219.137375 234.444138,218.913055 233.424179,218.632263 
	C254.422287,178.544312 275.301758,138.682861 296.426575,98.537712 
M327.007538,138.430191 
	C325.120728,142.326477 323.233948,146.222763 321.354889,150.103088 
	C343.370575,150.103088 364.714874,150.103088 386.517944,150.103088 
	C375.596436,128.154739 364.938995,106.737045 353.947510,84.648056 
	C344.798981,102.878983 336.051392,120.310913 327.007538,138.430191 
z"/>
<path fill="#000000" opacity="1.000000" stroke="none" 
	d="
M507.002350,219.164993 
	C505.506775,218.459366 504.329529,217.902740 503.593933,216.990112 
	C503.185303,216.483093 503.510193,215.382111 503.510193,214.548828 
	C503.509644,157.883942 503.509674,101.219063 503.509705,44.554176 
	C503.509705,43.240204 503.509766,41.926231 503.509766,40.391159 
	C519.613770,40.391159 535.409180,40.391159 551.713135,40.391159 
	C551.713135,86.671181 551.713135,133.051392 551.713135,179.864365 
	C595.458313,179.864365 638.699585,179.864365 682.214600,179.864365 
	C682.214600,193.041565 682.214600,205.789948 682.214600,219.165268 
	C624.052429,219.165268 565.778809,219.165268 507.002350,219.164993 
z"/>
<path fill="#030303" opacity="1.000000" stroke="none" 
	d="
M945.850464,109.850006 
	C955.608582,91.316513 977.243896,83.951767 995.363342,92.700577 
	C1016.642639,102.975029 1023.481750,125.612656 1012.568848,146.408081 
	C1003.669556,163.366287 979.547974,170.420746 961.978088,161.203522 
	C943.341003,151.426453 936.147583,128.876923 945.850464,109.850006 
z"/>
<path fill="#F8F8F8" opacity="1.000000" stroke="none" 
	d="
M327.155670,138.086517 
	C336.051392,120.310913 344.798981,102.878983 353.947510,84.648056 
	C364.938995,106.737045 375.596436,128.154739 386.517944,150.103088 
	C364.714874,150.103088 343.370575,150.103088 321.354889,150.103088 
	C323.233948,146.222763 325.120728,142.326477 327.155670,138.086517 
z"/>
</svg>